#define 1427003107777_width 64
#define 1427003107777_height 64
static char 1427003107777_bits[] = {
0xff,0xff,0x3f,0x00,0x00,0xf8,0xff,0xff,0xff,0xff,0x3f,0x00,0x00,0xf8,0xff,0xff,0xff,0xff,0x3f,0x00,0x00,0xf8,0xff,0xff,0xff,0xff,0x3f,0x00,0x00,0xf8,0xff,0xff,0xff,0xff,0x3f,0x00,0x00,0xf8,0xff,0xff,0xff,0xff,0x3f,0x00,0x00,0xf8,0xff,0xff,0xff,0xff,0x3f,0x00,0x00,0xf8,0xff,0xff,0xff,0xff,0x3f,0x00,0x00,0xf8,0xff,0xff,0xff,0xff,0x3f,0x00,0x00,0xf8,0xff,0xff,0xff,0xff,0x3f,0x00,0x00,0xf8,0xff,0xff,0xff,0xff,0x3f,0x00,0x00,0xf8,0xff,0xff,0xff,0xff,0x3f,0x00,0x00,0xf8,0xff,0xff,0xff,0xff,0x3f,0x00,0x00,0xf8,0xff,0xff,0xff,0xff,0x3f,0x00,0x00,0xf8,0xff,0xff,0xff,0xff,0x3f,0x00,0x00,0xf8,0xff,0xff,0xff,0xff,0x3f,0x00,0x00,0xf8,0xff,0xff,0xff,0xff,0x3f,0x00,0x00,0xf8,0xff,0xff,0xff,0xff,0x3f,0x00,0x00,0xf8,0xff,0xff,0xff,0xff,0x3f,0x00,0x00,0xf8,0xff,0xff,0xff,0xff,0x3f,0x00,0x00,0xf8,0xff,0xff,0xff,0xff,0x3f,0x00,0x00,0xf8,0xff,0xff,0xff,0xff,0x3f,0x00,0x00,0xf8,0xff,0xff,0x00,0x00,0xc0,0xff,0xff,0x07,0x00,0x00,0x00,0x00,0xc0,0xff,0xff,0x07,0x00,0x00,0x00,0x00,0xc0,0xff,0xff,0x07,0x00,0x00,0x00,0x00,0xc0,0xff,0xff,0x07,0x00,0x00,0x00,0x00,0xc0,0xff,0xff,0x07,0x00,0x00,0x00,0x00,0xc0,0xff,0xff,0x07,0x00,0x00,0x00,0x00,0xc0,0xff,0xff,0x07,0x00,0x00,0x00,0x00,0xc0,0xff,0xff,0x07,0x00,0x00,0x00,0x00,0xc0,0xff,0xff,0x07,0x00,0x00,0x00,0x00,0xc0,0xff,0xff,0x07,0x00,0x00,0x00,0x00,0xc0,0xff,0xff,0x07,0x00,0x00,0x00,0x00,0xc0,0xff,0xff,0x07,0x00,0x00,0x00,0x00,0xc0,0xff,0xff,0x07,0x00,0x00,0x00,0x00,0xc0,0xff,0xff,0x07,0x00,0x00,0x00,0x00,0xc0,0xff,0xff,0x07,0x00,0x00,0x00,0x00,0xc0,0xff,0xff,0x07,0x00,0x00,0x00,0x00,0xc0,0xff,0xff,0x07,0x00,0x00,0x00,0x00,0xc0,0xff,0xff,0x07,0x00,0x00,0x00,0x00,0xc0,0xff,0xff,0x07,0x00,0x00,0x00,0x00,0xc0,0xff,0xff,0x07,0x00,0x00,0x00,0x00,0xc0,0xff,0xff,0x07,0x00,0x00,0xff,0xff,0x3f,0x00,0x00,0xf8,0xff,0xff,0xff,0xff,0x3f,0x00,0x00,0xf8,0xff,0xff,0xff,0xff,0x3f,0x00,0x00,0xf8,0xff,0xff,0xff,0xff,0x3f,0x00,0x00,0xf8,0xff,0xff,0xff,0xff,0x3f,0x00,0x00,0xf8,0xff,0xff,0xff,0xff,0x3f,0x00,0x00,0xf8,0xff,0xff,0xff,0xff,0x3f,0x00,0x00,0xf8,0xff,0xff,0xff,0xff,0x3f,0x00,0x00,0xf8,0xff,0xff,0xff,0xff,0x3f,0x00,0x00,0xf8,0xff,0xff,0xff,0xff,0x3f,0x00,0x00,0xf8,0xff,0xff,0xff,0xff,0x3f,0x00,0x00,0xf8,0xff,0xff,0xff,0xff,0x3f,0x00,0x00,0xf8,0xff,0xff,0xff,0xff,0x3f,0x00,0x00,0xf8,0xff,0xff,0xff,0xff,0x3f,0x00,0x00,0xf8,0xff,0xff,0xff,0xff,0x3f,0x00,0x00,0xf8,0xff,0xff,0xff,0xff,0x3f,0x00,0x00,0xf8,0xff,0xff,0xff,0xff,0x3f,0x00,0x00,0xf8,0xff,0xff,0xff,0xff,0x3f,0x00,0x00,0xf8,0xff,0xff,0xff,0xff,0x3f,0x00,0x00,0xf8,0xff,0xff,0xff,0xff,0x3f,0x00,0x00,0xf8,0xff,0xff,0xff,0xff,0x3f,0x00,0x00,0xf8,0xff,0xff
};
